<svg width="320" height="377" viewBox="0 0 320 377" fill="none" xmlns="http://www.w3.org/2000/svg">
<rect width="320" height="377" fill="white"/>
<path d="M140.807 164H103.174V369C60.1698 347.025 30.0656 303.282 28.1025 252.864C27.3119 232.569 31.1029 212.356 39.1996 193.696C47.2962 175.035 59.4947 158.395 74.907 144.988C90.3195 131.58 108.558 121.746 128.295 116.197C148.031 110.649 168.77 109.526 189 112.909V218.785H140.807V164Z" fill="#250F1E"/>
<path d="M320 233.559C319.971 253.58 315.471 273.346 306.818 291.465C298.165 309.585 285.571 325.613 269.925 338.414C254.28 351.215 235.966 360.478 216.28 365.548C196.593 370.617 176.015 371.368 156 367.748V237.582H204.459V295.902H242.322V111C265.63 122.234 285.266 139.675 298.998 161.339C312.73 183.006 320.006 208.028 320 233.559Z" fill="#250F1E"/>
<path d="M65.5 83C86.2108 83 103 65.9862 103 44.9995C103 24.0131 86.2108 7 65.5 7C44.7895 7 28 24.0131 28 44.9995C28 65.9862 44.7895 83 65.5 83Z" fill="#D7D3E6"/>
</svg>
