<svg viewBox="0 0 137 30" xmlns="http://www.w3.org/2000/svg" preserveAspectRatio="xMidYMid meet"><g fill="none"><g fill="#273339"><path d="M34.29 6.49h7.4a11.56 11.56 0 015.2 1.08 7.65 7.65 0 013.34 3.13 9.71 9.71 0 011.16 4.86 9.86 9.86 0 01-1.15 4.89 7.58 7.58 0 01-3.33 3.13 11.63 11.63 0 01-5.22 1.08h-7.4zm7.07 14.37a5.44 5.44 0 004-1.32 5.4 5.4 0 001.32-4 5.35 5.35 0 00-1.32-4 5.47 5.47 0 00-4-1.3H39v10.62zM65.62 19.21h-7.84a2.72 2.72 0 00.9 1.78 3.18 3.18 0 002 .54 6.36 6.36 0 003.58-1.16l1.16 3a7.49 7.49 0 01-2.3 1.1 9.36 9.36 0 01-2.68.4 8.38 8.38 0 01-3.79-.8 5.73 5.73 0 01-2.46-2.3 6.89 6.89 0 01-.86-3.51 7.09 7.09 0 01.81-3.42 5.85 5.85 0 012.27-2.35 6.47 6.47 0 013.29-.84 5.6 5.6 0 014.3 1.77 6.77 6.77 0 011.6 4.76zM57.73 17h4c-.1-1.513-.767-2.27-2-2.27s-1.9.757-2 2.27zM76.1 12h4.49l-5.66 12.67h-3.79L65.57 12h4.8l2.79 7.14zM88.63 12h3v3.38h-3v9.31H84v-9.33h-2.33V12H84a5.3 5.3 0 011.74-4 8.11 8.11 0 014.84-1.53l1.57-.1.26 3.33-1.21.05a4.11 4.11 0 00-2 .44 1.53 1.53 0 00-.57 1.37zM95.68 24.07a5.83 5.83 0 01-2.45-2.31 6.89 6.89 0 01-.86-3.51 6.82 6.82 0 01.86-3.5 5.79 5.79 0 012.44-2.28 8.91 8.91 0 017.38 0 5.79 5.79 0 012.44 2.28 6.82 6.82 0 01.86 3.5 6.89 6.89 0 01-.86 3.51 5.85 5.85 0 01-2.49 2.31 8.75 8.75 0 01-7.36 0zm6.13-5.82c0-2.133-.817-3.2-2.45-3.2-1.633 0-2.45 1.067-2.45 3.2s.817 3.2 2.45 3.2c1.633 0 2.45-1.067 2.45-3.2zM108.44 24.67V6.49H113v18.18zM115.58 5.64h4.8v4.15h-4.8zm.1 19V12h4.59v12.67zM125.66 24.07a5.83 5.83 0 01-2.45-2.31 6.89 6.89 0 01-.86-3.51 6.82 6.82 0 01.86-3.5 5.79 5.79 0 012.44-2.28 8.91 8.91 0 017.38 0 5.79 5.79 0 012.44 2.28 6.82 6.82 0 01.86 3.5 6.89 6.89 0 01-.86 3.51 5.85 5.85 0 01-2.47 2.31 8.75 8.75 0 01-7.36 0zm6.13-5.82c0-2.133-.817-3.2-2.45-3.2s-2.45 1.067-2.45 3.2.817 3.2 2.45 3.2 2.447-1.067 2.44-3.2z"></path></g><g fill="#3770ff"><path d="M26 16.7a12.68 12.68 0 01-11.45 12.73s-8.22.21-10.94 0a2.84 2.84 0 01-2.28-1.72 3.48 3.48 0 001.21.29c.89.08 2.41.12 4.53.12 3.11 0 6.5-.09 6.53-.09h.06a13.35 13.35 0 008.81-4.39A14 14 0 0026 15.92z"></path><path d="M25 13.91a12.68 12.68 0 01-11.47 12.72s-8.22.21-10.94 0A3.06 3.06 0 010 23.53V4.16a3.06 3.06 0 012.65-3.07c2.73-.23 10.94 0 10.94 0A12.68 12.68 0 0125 13.91z"></path></g></g></svg>