<?xml version="1.0" encoding="UTF-8" standalone="no"?>
<svg
   xmlns:dc="http://purl.org/dc/elements/1.1/"
   xmlns:cc="http://creativecommons.org/ns#"
   xmlns:rdf="http://www.w3.org/1999/02/22-rdf-syntax-ns#"
   xmlns:svg="http://www.w3.org/2000/svg"
   xmlns="http://www.w3.org/2000/svg"
   xmlns:sodipodi="http://sodipodi.sourceforge.net/DTD/sodipodi-0.dtd"
   xmlns:inkscape="http://www.inkscape.org/namespaces/inkscape"
   width="184.12453"
   height="65.524788"
   viewBox="0 0 184.12453 65.524788"
   fill="none"
   version="1.1"
   id="svg32"
   sodipodi:docname="elastic.svg"
   inkscape:version="1.0.1 (3bc2e813f5, 2020-09-07)">
  <metadata
     id="metadata38">
    <rdf:RDF>
      <cc:Work
         rdf:about="">
        <dc:format>image/svg+xml</dc:format>
        <dc:type
           rdf:resource="http://purl.org/dc/dcmitype/StillImage" />
        <dc:title></dc:title>
      </cc:Work>
    </rdf:RDF>
  </metadata>
  <defs
     id="defs36" />
  <sodipodi:namedview
     pagecolor="#ffffff"
     bordercolor="#666666"
     borderopacity="1"
     objecttolerance="10"
     gridtolerance="10"
     guidetolerance="10"
     inkscape:pageopacity="0"
     inkscape:pageshadow="2"
     inkscape:window-width="1920"
     inkscape:window-height="1016"
     id="namedview34"
     showgrid="false"
     fit-margin-top="0"
     fit-margin-left="0"
     fit-margin-right="0"
     fit-margin-bottom="0"
     inkscape:zoom="3.3196866"
     inkscape:cx="37.644009"
     inkscape:cy="38.979999"
     inkscape:window-x="0"
     inkscape:window-y="27"
     inkscape:window-maximized="1"
     inkscape:current-layer="svg32" />
  <rect
     width="184.12453"
     height="65.524788"
     fill="#ffffff"
     id="rect2"
     x="0"
     y="0"
     style="stroke-width:0.649495" />
  <path
     d="m 62.777516,34.47113 c 0.0058,-2.5133 -0.7655,-4.9668 -2.2085,-7.0245 -1.4429,-2.0578 -3.4868,-3.619 -5.8516,-4.4699 0.2152,-1.0969 0.3237,-2.212 0.324,-3.3298 0.0021,-3.7 -1.1691,-7.3053 -3.3453,-10.2976996 -2.1761,-2.9923 -5.2451,-5.2175 -8.7656,-6.3557 -3.5206,-1.1382 -7.3113,-1.1307 -10.8274,0.0214 -3.516,1.1521 -6.5761,3.3895 -8.7404,6.3904 -1.5967,-1.2373 -3.5532,-1.9206 -5.573,-1.9463 -2.0199,-0.0257 -3.9931,0.6076 -5.6208,1.804 -1.6276,1.1962996 -2.8210998,2.8904996 -3.3994998,4.8258996 -0.5784,1.9355 -0.5104,4.0067 0.1939,5.9 -2.3704,0.8639 -4.4193,2.4331 -5.8712,4.4964 -1.4519,2.0633 -2.23719998,4.5218 -2.25009998,7.0447 -0.0065,2.5219 0.76879998,4.9838 2.21939998,7.0468 1.4505,2.063 3.5049,3.6256 5.8803,4.4727 -0.2103,1.0964 -0.3175,2.21 -0.3204,3.3263 -0.0035,3.6956 1.1667,7.297 3.3419998,10.2847 2.1752,2.9876 5.2431,5.2073 8.7613,6.3389 3.5182,1.1316 7.3048,1.1167 10.8139,-0.0426 3.5092,-1.1593 6.5595,-3.4031 8.7111,-6.4078 1.5921,1.2404 3.5452,1.9278 5.5632,1.9579 2.018,0.0301 3.9908,-0.5987 5.6191,-1.7911 1.6284,-1.1923 2.8235,-2.8832 3.404,-4.8161 0.5806,-1.9329 0.515,-4.0025 -0.1869,-5.8947 2.3717,-0.8625 4.422,-2.4312 5.8747,-4.4948 1.4527,-2.0635 2.238,-4.5228 2.2502,-7.0463"
     fill="#ffffff"
     id="path4" />
  <path
     d="m 25.191016,28.71843 13.5535,6.1881 13.6794,-11.9803 c 0.197,-0.9885 0.2947,-1.9943 0.2916,-3.0022 -7e-4,-3.2633 -1.0458,-6.4407 -2.9824,-9.0673 -1.9365,-2.6264996 -4.6628,-4.5643996 -7.78,-5.5298996 -3.1171,-0.9656 -6.4615,-0.9082 -9.5436,0.1638 -3.0822,1.072 -5.7404,3.1022 -7.5857,5.7936996 l -2.2787,11.7859 z"
     fill="#fec514"
     id="path6" />
  <path
     d="m 11.163316,43.07143 c -0.1999,1.004 -0.3,2.0253 -0.2988,3.0491 0,3.2768 1.0505,6.4674 2.9971,9.1033 1.9467,2.636 4.687,4.5786 7.8188,5.5427 3.1319,0.964 6.4903,0.8988 9.5823,-0.1861 3.0921,-1.0849 5.7549,-3.1324 7.5978,-5.8419 l 2.2571,-11.7607 -3.0131,-5.7598 -13.6038,-6.1989 z"
     fill="#00bfb3"
     id="path8" />
  <path
     d="m 11.080816,19.61783 9.2876,2.1924 2.0339,-10.562 c -1.2633,-0.9579 -2.8028,-1.4807996 -4.3881,-1.4904996 -1.5853,-0.0096 -3.1311,0.4944996 -4.406,1.4369996 -1.2748,0.9424 -2.21,2.2724 -2.6657,3.7909 -0.4556,1.5184 -0.4071,3.1436 0.1383,4.6322"
     fill="#f04e98"
     id="path10" />
  <path
     d="m 10.274216,21.82843 c -2.0377998,0.6876 -3.8105998,1.9933 -5.0718998,3.7352 -1.2613,1.742 -1.9485,3.8338 -1.9658,5.9844 -0.0014,2.0785 0.6298,4.1082 1.8097,5.8193 1.18,1.7111 2.8528,3.0225 4.7961,3.7599 l 13.0313998,-11.7787 -2.3939,-5.1118 z"
     fill="#1ba9f5"
     id="path12" />
  <path
     d="m 41.244316,54.73843 c 1.2612,0.9531 2.7969,1.4726 4.3777,1.481 1.5807,0.0084 3.1218,-0.4948 4.3931,-1.4344 1.2712,-0.9395 2.2045,-2.2651 2.6603,-3.7788 0.4559,-1.5136 0.4099,-3.1341 -0.1311,-4.6194 l -9.2804,-2.16 z"
     fill="#93c90e"
     id="path14" />
  <path
     d="m 43.128916,41.78243 10.2163,2.3867 c 2.039,-0.6857 3.813,-1.9909 5.0747,-3.7333 1.2616,-1.7424 1.9479,-3.8351 1.963,-5.9862 -0.0018,-2.0742 -0.6343,-4.0987 -1.8134,-5.805 -1.1791,-1.7064 -2.8492,-3.0139 -4.7887,-3.7491 l -13.3626,11.6996 z"
     fill="#0077cc"
     id="path16" />
  <path
     d="m 87.441016,45.49023 1.239,-0.1259 0.086,2.5198 c -2.756,0.4162 -5.536,0.6447 -8.3228,0.684 -3.0719,0 -5.2486,-0.8891 -6.5301,-2.6675 -1.2816,-1.7783 -1.9211,-4.5454 -1.9187,-8.3012 0,-7.4805 2.9734,-11.222 8.9206,-11.2244 2.88,0 5.028,0.804 6.444,2.4119 1.415,1.608 2.126,4.1279 2.131,7.5597 l -0.17,2.4335 h -14.0822 c 0,2.3615 0.4272,4.1111 1.2816,5.2486 0.8543,1.1376 2.3399,1.7063 4.4566,1.7063 2.121,0.0072 4.277,-0.0744 6.465,-0.2448 z m -1.152,-9.2588 c 0,-2.6183 -0.418,-4.4674 -1.256,-5.5473 -0.838,-1.08 -2.203,-1.6212 -4.097,-1.6236 -1.8931,0 -3.3163,0.5688 -4.269,1.7064 -0.9528,1.1375 -1.4436,2.959 -1.4724,5.4645 z"
     fill="#1c1e23"
     id="path18" />
  <path
     d="m 93.952016,48.39893 v -28.0788 h 3.201 v 28.0788 z"
     fill="#1c1e23"
     id="path20" />
  <path
     d="m 117.30802,33.24353 v 10.7635 c 0,1.08 2.657,1.0224 2.657,1.0224 l -0.162,2.8295 c -2.25,0 -4.111,0.1872 -5.227,-0.8964 -2.417,1.0733 -5.035,1.6194 -7.679,1.602 -1.961,0 -3.455,-0.5556 -4.482,-1.6668 -1.027,-1.1111 -1.539,-2.7083 -1.537,-4.7914 0,-2.0783 0.527,-3.6082 1.58,-4.5898 1.054,-0.9815 2.704,-1.5815 4.95,-1.7999 l 6.7,-0.6372 v -1.8359 c 0,-1.44 -0.312,-2.4791 -0.936,-3.1175 -0.342,-0.3209 -0.746,-0.5693 -1.186,-0.7302 -0.441,-0.1608 -0.909,-0.2308 -1.377,-0.2057 h -8.41 v -2.8187 h 8.197 c 2.419,0 4.176,0.5556 5.27,1.6667 1.095,1.1112 1.642,2.8463 1.642,5.2054 z m -13.15,8.7044 c 0,2.6183 1.08,3.9275 3.239,3.9275 1.949,-0.0023 3.883,-0.3346 5.721,-0.9828 l 0.979,-0.342 v -7.0413 l -6.304,0.5976 c -1.281,0.1152 -2.206,0.4848 -2.775,1.1087 -0.569,0.624 -0.856,1.5348 -0.86,2.7323 z"
     fill="#1c1e23"
     id="path22" />
  <path
     d="m 129.80202,29.23343 c -3.103,0 -4.654,1.08 -4.654,3.2399 0,0.9984 0.36,1.7027 1.08,2.1131 0.72,0.4104 2.341,0.8376 4.863,1.2816 2.534,0.4439 4.327,1.0631 5.378,1.8575 1.051,0.7944 1.578,2.2871 1.581,4.4782 0,2.1935 -0.705,3.8014 -2.114,4.8238 -1.408,1.0224 -3.464,1.5347 -6.166,1.5371 -1.764,0 -7.653,-0.6551 -7.653,-0.6551 l 0.172,-2.7719 c 3.384,0.324 5.829,0.5652 7.481,0.5652 1.652,0 2.909,-0.2628 3.776,-0.7884 0.868,-0.5256 1.3,-1.4076 1.3,-2.6459 0,-1.2383 -0.36,-2.0771 -1.109,-2.5199 -0.749,-0.4428 -2.362,-0.8604 -4.863,-1.2599 -2.502,-0.3996 -4.284,-0.9828 -5.335,-1.7496 -1.052,-0.7667 -1.581,-2.1923 -1.581,-4.2694 0,-2.0771 0.72,-3.5998 2.2,-4.6078 1.479,-1.008 3.294,-1.4939 5.482,-1.4939 1.735,0 7.758,0.4427 7.758,0.4427 v 2.7899 c -3.179,-0.1404 -5.778,-0.3672 -7.596,-0.3672 z"
     fill="#1c1e23"
     id="path24" />
  <path
     d="m 153.47502,29.57183 h -6.785 v 10.202 c 0,2.4455 0.177,4.0522 0.532,4.8202 0.36,0.7704 1.203,1.152 2.538,1.152 l 3.798,-0.2556 0.216,2.6459 c -1.438,0.2658 -2.894,0.4234 -4.356,0.4715 -2.217,0 -3.753,-0.5411 -4.608,-1.6235 -0.854,-1.0823 -1.28,-3.1451 -1.277,-6.1881 v -11.2244 h -3.017 v -2.7719 h 3.031 v -6.5301 h 3.157 v 6.5301 h 6.771 z"
     fill="#1c1e23"
     id="path26" />
  <path
     d="m 157.92602,24.07473 v -3.715 h 3.2 v 3.715 z m 0,24.3242 v -21.5991 h 3.2 v 21.5991 z"
     fill="#1c1e23"
     id="path28" />
  <path
     d="m 174.98802,26.37143 c 1.599,0.0682 3.191,0.2401 4.767,0.5148 l 1.022,0.1259 -0.126,2.6027 c -1.672,-0.2119 -3.355,-0.3392 -5.04,-0.3815 -2.419,0 -4.062,0.5759 -4.928,1.7279 -0.866,1.1519 -1.301,3.2854 -1.303,6.4005 0,3.1199 0.405,5.2894 1.217,6.5086 0.811,1.2191 2.503,1.8311 5.075,1.8359 l 5.04,-0.3816 0.13,2.6459 c -1.962,0.3323 -3.944,0.532 -5.933,0.5976 -3.326,0 -5.623,-0.8544 -6.89,-2.5631 -1.267,-1.7088 -1.901,-4.5886 -1.901,-8.6397 0,-4.0534 0.683,-6.8985 2.049,-8.5352 1.365,-1.6368 3.639,-2.4563 6.821,-2.4587 z"
     fill="#1c1e23"
     id="path30" />
</svg>
