<?xml version="1.0" encoding="UTF-8" standalone="no"?>
<svg
   xmlns:dc="http://purl.org/dc/elements/1.1/"
   xmlns:cc="http://creativecommons.org/ns#"
   xmlns:rdf="http://www.w3.org/1999/02/22-rdf-syntax-ns#"
   xmlns:svg="http://www.w3.org/2000/svg"
   xmlns="http://www.w3.org/2000/svg"
   xmlns:sodipodi="http://sodipodi.sourceforge.net/DTD/sodipodi-0.dtd"
   xmlns:inkscape="http://www.inkscape.org/namespaces/inkscape"
   viewBox="0 0 1064.63 532"
   version="1.1"
   id="svg52"
   sodipodi:docname="ihl-logo.svg"
   width="1064.63"
   height="532"
   inkscape:version="1.0.1 (3bc2e813f5, 2020-09-07)">
  <metadata
     id="metadata56">
    <rdf:RDF>
      <cc:Work
         rdf:about="">
        <dc:format>image/svg+xml</dc:format>
        <dc:type
           rdf:resource="http://purl.org/dc/dcmitype/StillImage" />
        <dc:title>_Blue</dc:title>
      </cc:Work>
    </rdf:RDF>
  </metadata>
  <sodipodi:namedview
     pagecolor="#ffffff"
     bordercolor="#666666"
     borderopacity="1"
     objecttolerance="10"
     gridtolerance="10"
     guidetolerance="10"
     inkscape:pageopacity="0"
     inkscape:pageshadow="2"
     inkscape:window-width="1920"
     inkscape:window-height="1016"
     id="namedview54"
     showgrid="false"
     inkscape:zoom="1.2811963"
     inkscape:cx="713.00551"
     inkscape:cy="232.5"
     inkscape:window-x="0"
     inkscape:window-y="27"
     inkscape:window-maximized="1"
     inkscape:current-layer="svg52" />
  <defs
     id="defs4">
    <style
       id="style2">.cls-1{fill:#ebe849;}.cls-2{fill:#00b2b8;}.cls-3{fill:#081725;}</style>
  </defs>
  <title
     id="title6">_Blue</title>
  <g
     id="Layer_2"
     data-name="Layer 2"
     transform="translate(0,26.5)">
    <g
       id="Layer_1-2"
       data-name="Layer 1">
      <path
         class="cls-1"
         d="m 0,0 v 135 h 99.26 v 68.4 h 54.5 V 135 h 100 v 0.33 H 254 V 0 Z"
         id="path8" />
      <polygon
         class="cls-2"
         points="253.76,330 253.76,329.67 254.01,329.67 254.01,465 0,465 0,330 99.27,330 99.27,259.87 153.76,259.87 153.76,330 "
         id="polygon10" />
      <path
         class="cls-3"
         d="m 363.53,53.86 v 46.28 h 12.73 v 32.24 h -60.51 v -32.24 h 12.9 V 53.86 h -12.9 V 21.62 h 60.51 v 32.24 z"
         id="path12" />
      <path
         class="cls-3"
         d="m 394.61,21.62 h 64.14 l 15.54,75.22 h 6.12 V 21.62 h 34.88 V 132.38 H 451.15 L 435.44,57.16 h -6.12 v 75.22 h -34.71 z"
         id="path14" />
      <path
         class="cls-3"
         d="m 627.7,64.77 v 24.46 c 0,26.12 -18.51,43.15 -46.29,43.15 H 536.28 V 21.62 h 45.13 c 27.78,0 46.29,17.03 46.29,43.15 z m -34.88,1 c 0,-7.77 -4.46,-11.9 -12.4,-11.9 H 571 v 46.28 h 9.42 c 7.94,0 12.4,-4.13 12.4,-11.9 z"
         id="path16" />
      <path
         class="cls-3"
         d="m 690.52,53.86 v 46.28 h 12.73 v 32.24 h -60.5 v -32.24 h 12.89 V 53.86 H 642.75 V 21.62 h 60.5 v 32.24 z"
         id="path18" />
      <path
         class="cls-3"
         d="m 781.45,118.16 h -28.27 l -2.65,14.22 H 713.34 L 741.27,21.62 h 53.4 l 27.94,110.76 h -38.52 z m -5.62,-31.24 -5.46,-30.25 h -6.12 l -5.45,30.25 z"
         id="path20" />
      <path
         class="cls-3"
         d="m 835.5,21.62 h 64.15 l 15.53,75.22 h 6.12 V 21.62 h 34.88 V 132.38 H 892 L 876.3,57.16 h -6.12 v 75.22 H 835.5 Z"
         id="path22" />
      <path
         class="cls-3"
         d="M 407.34,186.94 V 297.7 h -34.88 v -39.84 h -19 V 297.7 H 318.73 V 186.94 h 34.71 v 38.85 h 19 v -38.85 z"
         id="path24" />
      <path
         class="cls-3"
         d="m 488.18,283.48 h -28.27 l -2.65,14.22 H 420.07 L 448,186.94 h 53.4 L 529.34,297.7 H 490.82 Z M 482.56,252.24 477.1,222 H 471 l -5.46,30.25 z"
         id="path26" />
      <path
         class="cls-3"
         d="m 536,256.87 v -29.1 c 0,-26 18.35,-42.82 46.61,-42.82 27.94,0 46.46,16.87 46.46,42.82 v 4.63 h -34.92 v -4.13 c 0,-6.78 -4.63,-11.08 -11.58,-11.08 -7.1,0 -11.9,4.3 -11.9,11.08 v 28.1 c 0,6.78 4.8,11.08 11.9,11.08 6.95,0 11.58,-4.3 11.58,-11.08 v -4.13 H 629 v 4.63 c 0,25.95 -18.52,42.81 -46.46,42.81 -28.23,0 -46.54,-16.86 -46.54,-42.81 z"
         id="path28" />
      <path
         class="cls-3"
         d="m 688.71,257.86 h -7.44 V 297.7 H 646.55 V 186.94 h 34.72 v 38.85 h 7.27 l 16.2,-38.85 h 38 l -27.11,50.75 27.78,60 h -40.65 z"
         id="path30" />
      <path
         class="cls-3"
         d="m 801.78,219.17 v 46.29 h 12.73 V 297.7 H 754 v -32.24 h 12.9 V 219.17 H 754 v -32.23 h 60.5 v 32.23 z"
         id="path32" />
      <path
         class="cls-3"
         d="M 832.86,186.94 H 897 l 15.54,75.21 h 6.12 v -75.21 h 34.88 V 297.7 H 889.4 l -15.71,-75.22 h -6.11 v 75.22 h -34.72 z"
         id="path34" />
      <path
         class="cls-3"
         d="m 1029.75,227.27 v -0.82 c 0,-5.62 -4.63,-9.26 -11.57,-9.26 -7.11,0 -11.9,4.3 -11.9,11.08 v 29.92 c 0,6.78 4.79,11.07 11.9,11.07 6.12,0 10.58,-2.81 11.41,-7.6 h -10.09 v -27.28 h 45.13 v 63.32 h -25 v -7.44 H 1035 c -4,5.79 -12.23,9.42 -23.47,9.42 -23.31,0 -40,-15.7 -40,-39.67 v -32.24 c 0,-26 18.35,-42.82 46.62,-42.82 27.94,0 46.45,16.21 46.45,41 v 1.32 z"
         id="path36" />
      <path
         class="cls-3"
         d="M 390.64,430.78 V 463 H 318.73 V 352.26 h 34.71 v 78.52 z"
         id="path38" />
      <path
         class="cls-3"
         d="m 441.39,384 v 7.6 h 33.89 v 31.08 h -33.89 v 8.6 h 40.5 V 463 H 406.68 V 352.26 h 75.21 V 384 Z"
         id="path40" />
      <path
         class="cls-3"
         d="M 561.25,448.8 H 533 l -2.67,14.2 h -37.19 l 27.93,-110.76 h 53.4 L 602.41,463 h -38.52 z m -5.63,-31.24 -5.45,-30.26 h -6.12 l -5.45,30.26 z"
         id="path42" />
      <path
         class="cls-3"
         d="m 667.21,392.59 v -0.82 c 0,-5.62 -4.63,-9.26 -11.57,-9.26 -7.11,0 -11.9,4.3 -11.9,11.07 v 29.93 c 0,6.77 4.79,11.07 11.9,11.07 6.12,0 10.58,-2.81 11.41,-7.6 H 657 V 399.7 h 45.13 V 463 h -25 v -7.44 h -4.63 c -4,5.78 -12.23,9.42 -23.47,9.42 -23.31,0 -40,-15.7 -40,-39.68 v -32.21 c 0,-26 18.35,-42.82 46.62,-42.82 27.94,0 46.45,16.2 46.45,41 v 1.32 z"
         id="path44" />
      <path
         class="cls-3"
         d="m 720.45,423 v -70.74 h 34.88 v 70.25 c 0,6.29 4.3,10.25 10.91,10.25 6.44,0 10.74,-4 10.74,-10.25 v -70.25 h 34.88 V 423 c 0,25.46 -18,42 -45.62,42 -27.62,0 -45.79,-16.53 -45.79,-42 z"
         id="path46" />
      <path
         class="cls-3"
         d="m 866.42,384 v 7.6 h 33.89 v 31.08 h -33.89 v 8.6 h 40.5 V 463 H 831.71 V 352.26 h 75.21 V 384 Z"
         id="path48" />
    </g>
  </g>
</svg>
