<svg xmlns="http://www.w3.org/2000/svg" width="240" height="91" viewBox="0 0 240 91">
    <g fill="none">
        <path fill="#0041CA" d="M3.942 32.992c2.275 1.855 5.107 3.157 7.751 3.157 3.153 0 4.547-1.114 4.547-2.924 0-1.903-1.763-2.508-4.687-3.622l-3.898-1.67c-3.385-1.25-6.45-3.85-6.45-8.257 0-5.01 4.548-9 11.09-9 3.742-.002 7.344 1.425 10.07 3.99l-3.481 4.314c-2.087-1.53-3.99-2.412-6.586-2.412S8.123 17.593 8.123 19.3c0 1.855 2.05 2.507 4.964 3.573l3.652 1.582c3.99 1.482 6.49 3.942 6.49 8.198 0 5.011-4.222 9.374-11.74 9.374C7.26 42.02 3.178 40.48 0 37.693l3.942-4.7zM45.283 10.675c3.853 0 6.914 1.855 8.957 3.85l-3.758 4.222c-1.438-1.298-3.016-2.18-5.199-2.18-4.266 0-7.423 3.666-7.423 9.743 0 6.218 3.157 9.835 7.703 9.835 2.18 0 3.898-1.066 5.38-2.688l3.758 4.13c-2.35 2.853-5.868 4.486-9.565 4.44-7.795 0-14.292-5.332-14.292-15.495 0-10.022 6.357-15.867 14.429-15.867M77.298 34.277h-9.141l-1.855 7.194h-6.958l9.418-30.253h8.164l9.422 30.253h-7.24l-1.81-7.194zm-1.39-5.336l-.683-2.784c-.79-3.017-1.626-6.586-2.412-9.743h-.188c-.741 3.201-1.578 6.726-2.364 9.743l-.683 2.784h6.33zM94.512 11.232L101.334 11.232 101.334 35.732 114.79 35.732 114.79 41.485 94.512 41.485zM124.532 11.232L144.482 11.232 144.482 16.985 131.351 16.985 131.351 23.065 142.487 23.065 142.487 28.77 131.351 28.77 131.351 35.732 144.946 35.732 144.946 41.485 124.532 41.485zM170.232 41.485l-5.807-10.905h-3.563v10.905h-6.832V11.232h10.72c6.401 0 11.692 2.227 11.692 9.418 0 4.44-2.182 7.283-5.383 8.725l6.832 12.11h-7.659zm-9.37-16.336h3.34c3.618 0 5.521-1.53 5.521-4.499 0-2.969-1.903-3.99-5.52-3.99h-3.341v8.489z"/>
        <path fill="#006ADA" d="M221.845 33.187L221.845 41.485 230.143 33.187z"/>
        <path fill="#0F8CFF" d="M213.551 24.89v8.297h-8.298v-8.298h8.298zm-16.595 16.595h24.89V16.592h-24.89v24.893"/>
        <path fill="#006ADA" d="M205.253 8.298L205.253 8.298 196.956 16.595 205.253 16.595z"/>
        <path fill="#0041CA" d="M230.143 8.298L230.143 33.187 238.44 24.889 238.44 0z"/>
        <path fill="#006ADA" d="M213.551 0L213.551 8.298 230.143 8.298 238.44 0z"/>
        <path fill="#0F8CFF" d="M213.551 8.298L213.551 0 205.253 8.298z"/>
        <path fill="#222" d="M2.828 82.484v-20.61h6.125c.967-.007 1.93.088 2.877.284.79.157 1.546.456 2.23.882.606.386 1.102.921 1.442 1.554.365.714.544 1.508.52 2.31.012.98-.255 1.945-.77 2.78-.513.826-1.313 1.435-2.247 1.708v.12c1.162.179 2.233.733 3.05 1.578.777.82 1.165 1.941 1.165 3.365.02.911-.173 1.814-.567 2.637-.372.75-.922 1.397-1.602 1.885-.75.526-1.593.908-2.483 1.124-1.038.259-2.104.385-3.174.376l-6.566.007zm2.607-11.843h3.047c1.76 0 3.028-.305 3.802-.913.768-.588 1.201-1.513 1.162-2.48 0-1.195-.404-2.044-1.21-2.545-.806-.5-2.015-.752-3.628-.755H5.435v6.693zm0 9.77h3.58c1.779 0 3.16-.33 4.147-.988.987-.663 1.48-1.68 1.48-3.074 0-1.278-.486-2.217-1.446-2.812-.96-.594-2.357-.895-4.181-.895h-3.58v7.768zM22.744 89.05c-.326.003-.652-.023-.974-.079-.28-.048-.554-.127-.816-.236l.502-2.05.567.14c.196.051.396.077.598.08.819.024 1.607-.315 2.152-.926.59-.684 1.033-1.482 1.302-2.344l.341-1.13-6.125-15.298h2.672l3.108 8.452c.228.67.474 1.375.738 2.118.264.742.51 1.47.738 2.186h.123c.232-.683.45-1.414.66-2.17.208-.754.42-1.465.628-2.134l2.733-8.452h2.514l-5.742 16.534c-.259.72-.564 1.423-.913 2.104-.31.617-.713 1.184-1.192 1.681-.451.465-.984.844-1.571 1.117-.646.283-1.345.422-2.05.407M47.469 61.878H50.075V82.487H47.469zM57.366 82.484V67.218H59.5l.222 2.196h.092c.695-.7 1.47-1.316 2.31-1.834.848-.507 1.823-.764 2.81-.742 1.613 0 2.792.504 3.536 1.51.745 1.007 1.116 2.494 1.114 4.462v9.674h-2.576v-9.33c0-1.443-.227-2.485-.683-3.125-.455-.64-1.189-.96-2.2-.96-.745-.014-1.478.194-2.104.598-.748.516-1.443 1.106-2.074 1.76v11.057h-2.582zM81.24 82.863c-.702.02-1.4-.109-2.05-.379-.532-.225-1-.577-1.366-1.025-.36-.473-.612-1.02-.737-1.602-.152-.68-.226-1.376-.219-2.074v-8.461h-2.261v-1.947l2.39-.157.315-4.274h2.17v4.274h4.116v2.104H79.48v8.482c-.045.763.136 1.522.52 2.183.343.512.956.768 1.837.768.297-.003.592-.044.878-.123.29-.075.574-.17.85-.283l.503 1.947c-.448.155-.904.286-1.366.393-.48.114-.97.173-1.462.174M94.686 82.863c-.984.007-1.96-.18-2.873-.55-.871-.36-1.659-.898-2.312-1.578-.684-.718-1.213-1.567-1.555-2.497-.392-1.077-.583-2.216-.563-3.362-.02-1.152.177-2.298.58-3.378.348-.932.87-1.79 1.538-2.528.613-.672 1.357-1.213 2.186-1.588.798-.363 1.665-.55 2.541-.55.89-.015 1.773.156 2.593.502.74.325 1.391.82 1.903 1.445.535.672.935 1.44 1.178 2.265.285.957.423 1.952.41 2.951v.803c-.006.23-.032.458-.078.683h-10.32c.102 1.637.61 2.931 1.523 3.88.93.963 2.226 1.484 3.563 1.432.69.003 1.375-.112 2.026-.342.622-.22 1.218-.51 1.776-.864l.913 1.708c-.707.438-1.454.806-2.231 1.1-.896.328-1.844.488-2.798.472m-4.806-9.224h8.16c0-1.55-.328-2.73-.987-3.535-.68-.822-1.705-1.276-2.77-1.227-.534-.001-1.063.105-1.554.315-.503.216-.957.53-1.336.925-.415.436-.75.941-.99 1.493-.276.64-.452 1.319-.52 2.012M105.966 82.484V67.218h2.135l.222 2.763h.092c.464-.89 1.113-1.672 1.903-2.292.692-.55 1.549-.85 2.432-.85.561-.009 1.118.098 1.636.314l-.502 2.261c-.224-.074-.452-.137-.683-.188-.26-.045-.522-.065-.786-.061-.742.034-1.454.31-2.025.785-.702.524-1.314 1.435-1.838 2.733v9.801h-2.586zM122.834 82.484l-5.496-15.266h2.671l2.89 8.67c.228.753.464 1.507.707 2.261.244.754.479 1.502.704 2.244h.126c.233-.73.462-1.475.684-2.23.222-.755.457-1.507.683-2.262l2.89-8.67h2.545l-5.404 15.267-3-.014zM137.41 64.075c-.468.012-.923-.156-1.27-.472-.329-.31-.515-.743-.515-1.195 0-.452.186-.885.515-1.196.739-.61 1.806-.61 2.545 0 .328.311.514.744.514 1.196 0 .452-.186.884-.514 1.195-.348.316-.805.485-1.274.472m-1.319 3.143h2.576v15.266h-2.576V67.218zM151.895 82.863c-.985.008-1.961-.18-2.873-.55-.877-.356-1.669-.891-2.327-1.571-.683-.718-1.212-1.568-1.554-2.497-.765-2.182-.765-4.559 0-6.74.35-.932.873-1.79 1.54-2.528.613-.672 1.356-1.213 2.184-1.589.8-.362 1.667-.55 2.545-.55.89-.014 1.772.157 2.592.503.745.323 1.401.818 1.917 1.445.535.671.935 1.44 1.178 2.264.282.959.419 1.953.407 2.952v.803c-.008.23-.034.458-.079.683H147.12c.105 1.637.613 2.93 1.524 3.88.931.962 2.228 1.483 3.566 1.432.69.003 1.375-.113 2.026-.342.622-.222 1.217-.511 1.776-.864l.909 1.708c-.706.438-1.451.806-2.228 1.1-.895.328-1.844.487-2.797.471m-4.807-9.223h8.168c0-1.55-.33-2.73-.99-3.536-.685-.818-1.716-1.266-2.781-1.209-.534-.001-1.063.106-1.555.314-.502.217-.956.532-1.335.926-.414.436-.749.941-.987 1.493-.278.64-.453 1.318-.52 2.012M165.75 82.484l-4.243-15.266h2.641l2.261 8.827c.169.733.326 1.445.472 2.135.146.69.291 1.391.437 2.104h.127l.502-2.118c.166-.701.345-1.408.536-2.121l2.354-8.827h2.514l2.391 8.827c.187.733.37 1.445.55 2.135.18.69.353 1.391.52 2.104h.122c.167-.71.324-1.412.472-2.104.148-.693.305-1.404.471-2.135l2.23-8.827h2.454l-4.1 15.266h-3.14l-2.199-8.199c-.188-.734-.362-1.455-.52-2.169-.156-.714-.34-1.455-.518-2.23h-.127c-.168.774-.336 1.523-.502 2.247-.166.725-.354 1.452-.564 2.183l-2.138 8.168h-3.003zM188.023 82.484v-20.61h6.125c.966-.007 1.93.088 2.876.284.79.157 1.545.455 2.227.882.608.385 1.106.92 1.445 1.554.365.714.544 1.508.52 2.31.012.98-.254 1.945-.769 2.78-.514.826-1.314 1.435-2.248 1.708v.12c1.16.178 2.229.728 3.047 1.568.775.82 1.163 1.941 1.165 3.364.02.912-.173 1.815-.567 2.638-.372.75-.922 1.397-1.602 1.885-.75.528-1.59.912-2.48 1.13-1.038.26-2.104.386-3.174.377l-6.565.01zm2.593-11.843h3.074c1.758 0 3.026-.305 3.802-.913.768-.588 1.201-1.513 1.162-2.48 0-1.195-.404-2.044-1.21-2.545-.806-.5-2.015-.752-3.628-.755h-3.2v6.693zm0 9.77h3.58c1.78 0 3.163-.33 4.147-.988.987-.663 1.479-1.68 1.479-3.074 0-1.278-.485-2.217-1.445-2.812-.96-.594-2.357-.895-4.181-.895h-3.58v7.768zM209.448 64.075c-.47.012-.926-.157-1.274-.472-.326-.312-.51-.744-.51-1.195 0-.452.184-.883.51-1.196.739-.61 1.806-.61 2.545 0 .328.311.515.744.515 1.196 0 .452-.187.884-.515 1.195-.347.316-.802.484-1.27.472m-1.32 3.143h2.576v15.266h-2.575V67.218zM222.549 82.863c-.702.02-1.401-.11-2.05-.379-.532-.225-1.001-.577-1.366-1.025-.362-.472-.614-1.02-.738-1.602-.153-.68-.228-1.376-.222-2.074v-8.461h-2.262v-1.947l2.392-.157.314-4.274h2.17v4.274h4.098v2.104h-4.099v8.482c-.046.762.134 1.522.516 2.183.348.512.961.768 1.838.768.298-.003.594-.044.881-.123.289-.075.572-.17.847-.283l.503 1.947c-.449.155-.905.286-1.367.393-.478.114-.967.173-1.459.174"/>
    </g>
</svg>
